<?xml version="1.0" standalone="no"?>
<!DOCTYPE svg PUBLIC "-//W3C//DTD SVG 20010904//EN"
 "http://www.w3.org/TR/2001/REC-SVG-20010904/DTD/svg10.dtd">
<svg version="1.0" xmlns="http://www.w3.org/2000/svg"
 width="280.000000pt" height="280.000000pt" viewBox="0 0 280.000000 280.000000"
 preserveAspectRatio="xMidYMid meet">
<metadata>
Created by potrace 1.11, written by Peter Selinger 2001-2013
</metadata>
<g transform="translate(0.000000,280.000000) scale(0.100000,-0.100000)"
fill="#000000" stroke="none">
<path d="M1178 2523 c6 -2 18 -2 25 0 6 3 1 5 -13 5 -14 0 -19 -2 -12 -5z"/>
<path d="M1573 2523 c9 -2 23 -2 30 0 6 3 -1 5 -18 5 -16 0 -22 -2 -12 -5z"/>
<path d="M1113 2513 c9 -2 23 -2 30 0 6 3 -1 5 -18 5 -16 0 -22 -2 -12 -5z"/>
<path d="M1633 2513 c9 -2 23 -2 30 0 6 3 -1 5 -18 5 -16 0 -22 -2 -12 -5z"/>
<path d="M1068 2503 c7 -3 16 -2 19 1 4 3 -2 6 -13 5 -11 0 -14 -3 -6 -6z"/>
<path d="M1688 2503 c7 -3 16 -2 19 1 4 3 -2 6 -13 5 -11 0 -14 -3 -6 -6z"/>
<path d="M1028 2493 c7 -3 16 -2 19 1 4 3 -2 6 -13 5 -11 0 -14 -3 -6 -6z"/>
<path d="M1728 2493 c7 -3 16 -2 19 1 4 3 -2 6 -13 5 -11 0 -14 -3 -6 -6z"/>
<path d="M872 2434 c-29 -15 -51 -28 -49 -31 3 -2 31 9 63 26 72 37 60 40 -14
5z"/>
<path d="M1860 2445 c0 -6 56 -35 67 -35 4 0 -5 9 -22 20 -29 19 -45 25 -45
15z"/>
<path d="M1945 2401 c3 -6 -3 -14 -12 -20 -10 -6 -13 -11 -7 -11 5 0 18 6 28
13 17 13 18 14 2 20 -10 4 -14 3 -11 -2z"/>
<path d="M700 2331 c-248 -182 -391 -407 -457 -716 -10 -52 -13 -114 -10 -240
5 -185 22 -266 89 -420 38 -87 143 -247 195 -298 l39 -37 87 52 c255 156 411
349 616 767 45 90 81 166 81 169 0 2 -51 2 -112 1 l-113 -4 -2 25 c0 14 -1 30
-2 36 -1 15 -160 9 -289 -10 -106 -16 -232 -55 -322 -101 -87 -44 -190 -106
-203 -124 -7 -9 -23 -22 -36 -29 l-24 -14 8 89 c8 106 33 253 44 267 5 6 18
43 31 81 27 85 85 187 158 280 92 116 104 126 291 262 2 2 2 5 0 7 -3 3 -34
-17 -69 -43z"/>
<path d="M1794 2278 l-19 -23 23 19 c21 18 27 26 19 26 -2 0 -12 -10 -23 -22z"/>
<path d="M2138 2182 c-32 -21 -90 -68 -131 -104 -78 -70 -217 -228 -217 -247
0 -15 59 -7 74 10 7 8 39 46 71 84 62 74 223 224 241 225 19 0 64 25 64 36 0
13 -21 34 -34 34 -6 0 -37 -17 -68 -38z"/>
<path d="M1660 2139 c-27 -33 -50 -63 -50 -67 0 -3 4 -2 8 4 73 87 103 124 98
124 -3 0 -28 -27 -56 -61z"/>
<path d="M2286 2113 c19 -29 40 -56 46 -59 18 -11 -8 29 -47 71 l-36 40 37
-52z"/>
<path d="M2391 1965 c0 -5 6 -21 14 -35 8 -14 14 -20 14 -15 0 6 -6 21 -14 35
-8 14 -14 21 -14 15z"/>
<path d="M1513 1938 c-15 -20 -25 -38 -20 -38 3 0 12 11 21 25 17 26 16 35 -1
13z"/>
<path d="M1465 1864 c-9 -15 -12 -23 -6 -20 11 7 35 46 28 46 -3 0 -12 -12
-22 -26z"/>
<path d="M2440 1865 c0 -5 5 -17 10 -25 5 -8 10 -10 10 -5 0 6 -5 17 -10 25
-5 8 -10 11 -10 5z"/>
<path d="M2461 1810 c0 -8 4 -24 9 -35 5 -13 9 -14 9 -5 0 8 -4 24 -9 35 -5
13 -9 14 -9 5z"/>
<path d="M2018 1705 l-53 -95 -147 0 -148 0 -48 -97 c-27 -54 -66 -135 -86
-180 -152 -340 -470 -754 -673 -876 -29 -18 -53 -35 -53 -38 -1 -17 258 -108
366 -128 303 -58 666 28 909 214 97 75 203 186 263 275 58 87 96 160 88 168
-7 7 -7 7 -30 -43 l-18 -39 -33 54 c-123 203 -232 330 -382 444 -73 55 -219
140 -272 157 -11 4 -11 9 -2 27 11 21 17 22 160 22 l149 0 61 109 c33 61 61
112 61 115 0 3 -13 6 -29 6 -26 0 -34 -9 -83 -95z"/>
<path d="M2481 1734 c0 -11 3 -14 6 -6 3 7 2 16 -1 19 -3 4 -6 -2 -5 -13z"/>
<path d="M2491 1694 c0 -11 3 -14 6 -6 3 7 2 16 -1 19 -3 4 -6 -2 -5 -13z"/>
<path d="M2533 1415 c0 -27 2 -38 4 -22 2 15 2 37 0 50 -2 12 -4 0 -4 -28z"/>
<path d="M2522 1260 c0 -14 2 -19 5 -12 2 6 2 18 0 25 -3 6 -5 1 -5 -13z"/>
<path d="M2511 1194 c0 -11 3 -14 6 -6 3 7 2 16 -1 19 -3 4 -6 -2 -5 -13z"/>
<path d="M2490 1140 c0 -5 5 -10 10 -10 6 0 10 5 10 10 0 6 -4 10 -10 10 -5 0
-10 -4 -10 -10z"/>
<path d="M2480 1094 c0 -8 5 -12 10 -9 6 3 10 10 10 16 0 5 -4 9 -10 9 -5 0
-10 -7 -10 -16z"/>
<path d="M2457 1018 c-9 -29 -15 -54 -13 -56 2 -2 10 14 16 35 7 21 17 43 22
50 5 6 5 14 0 17 -5 3 -16 -18 -25 -46z"/>
</g>
</svg>
