<svg version="1.1" id="Capa_1" xmlns="http://www.w3.org/2000/svg" xmlns:xlink="http://www.w3.org/999/xlink" x="0px" y="0px" width="20px" height="25px" viewBox="0 0 20 25" enable-background="new 0 0 20 25" xml:space="preserve">
	<path id="Page-1" fill="#FFFFFF" d="M17.018,16.275H3.684V15.29c0-2.19,4.445-3.396,6.667-3.396c2.222,0,6.666,1.205,6.666,3.396 V16.275z M9.602,4.683c1.957-0.367,3.643,1.295,3.271,3.224c-0.207,1.071-1.095,1.947-2.182,2.15 c-1.956,0.367-3.643-1.295-3.27-3.224C7.626,5.762,8.516,4.886,9.602,4.683z M17.777,1H2.222C0.989,1,0,1.986,0,3.19v15.333 c0,1.209,0.996,2.191,2.222,2.191h4.444L10,24l3.334-3.285h4.443C19,20.715,20,19.729,20,18.523V3.19C20,1.986,19,1,17.777,1z"/>
</svg>
