<?xml version="1.0" encoding="utf-8"?>
<!-- Generator: Adobe Illustrator 16.0.0, SVG Export Plug-In . SVG Version: 6.00 Build 0)  -->
<!DOCTYPE svg PUBLIC "-//W3C//DTD SVG 1.1//EN" "http://www.w3.org/Graphics/SVG/1.1/DTD/svg11.dtd">
<svg version="1.1" id="Capa_1" xmlns="http://www.w3.org/2000/svg" xmlns:xlink="http://www.w3.org/1999/xlink" x="0px" y="0px"
	 width="35px" height="35px" viewBox="-7.5 -8 35 35" enable-background="new -7.5 -8 35 35" xml:space="preserve">
<title>Page 1@3x</title>
<desc>Created with Sketch.</desc>
<g id="Page-1_1_">
	<g id="Aval_Simulador_02_A" transform="translate(-177.000000, -89.000000)">
		<path id="Page-1" fill="#525252" d="M195.289,108.746l3.091,3.109l2.436-2.436l-3.11-3.092L195.289,108.746z M199.895,99.881
			h4.605v-3.683h-4.605V99.881z M192.296,89.214V81.46h-9.671v7.753c-2.886,1.676-4.835,4.787-4.835,8.365
			c0,5.333,4.335,9.671,9.671,9.671c5.333,0,9.671-4.338,9.671-9.671C197.132,94,195.182,90.89,192.296,89.214z M169.5,99.881h4.605
			v-3.683H169.5V99.881z M186.079,115.539h2.763v-4.605h-2.763V115.539z M173.184,109.426l2.435,2.43l3.091-3.098l-2.435-2.43
			L173.184,109.426z"/>
	</g>
</g>
</svg>
