<?xml version="1.0" encoding="utf-8"?>
<!-- Generator: Adobe Illustrator 16.0.0, SVG Export Plug-In . SVG Version: 6.00 Build 0)  -->
<!DOCTYPE svg PUBLIC "-//W3C//DTD SVG 1.1//EN" "http://www.w3.org/Graphics/SVG/1.1/DTD/svg11.dtd">
<svg version="1.1" id="Capa_1" xmlns="http://www.w3.org/2000/svg" xmlns:xlink="http://www.w3.org/1999/xlink" x="0px" y="0px"
	 width="200px" height="200px" viewBox="0 0 200 200" enable-background="new 0 0 200 200" xml:space="preserve">
<g id="Page-1_1_">
	<g id="iPhone-8-Copy-2" transform="translate(-20.000000, -79.000000)">
		<path id="Page-1" fill="#0A7B88" d="M37.018,94.275H23.684V93.29c0-2.19,4.445-3.396,6.667-3.396c2.222,0,6.666,1.205,6.666,3.396
			V94.275z M29.602,82.683c1.957-0.367,3.643,1.295,3.271,3.224c-0.207,1.071-1.095,1.947-2.182,2.15
			c-1.956,0.367-3.643-1.295-3.27-3.224C27.626,83.762,28.516,82.886,29.602,82.683z M37.777,79H22.222
			C20.989,79,20,79.986,20,81.19v15.333c0,1.209,0.996,2.191,2.222,2.191h4.444L30,102l3.334-3.285h4.443
			C39,98.715,40,97.729,40,96.523V81.19C40,79.986,39,79,37.777,79z"/>
	</g>
</g>
<g>
</g>
<g>
</g>
<g>
</g>
<g>
</g>
<g>
</g>
<g>
</g>
<g>
</g>
<g>
</g>
<g>
</g>
<g>
</g>
<g>
</g>
<g>
</g>
<g>
</g>
<g>
</g>
<g>
</g>
</svg>
